<?xml version="1.0" encoding="utf-8"?>
<!-- Generator: Adobe Illustrator 25.3.1, SVG Export Plug-In . SVG Version: 6.00 Build 0)  -->
<svg version="1.1" id="Layer_1" xmlns="http://www.w3.org/2000/svg" xmlns:xlink="http://www.w3.org/1999/xlink" x="0px" y="0px"
	 viewBox="0 0 73.7 73.7" style="enable-background:new 0 0 73.7 73.7;" xml:space="preserve">
<style type="text/css">
	.st0{fill:#E30613;}
</style>
<g>
	<path d="M-91.3,34h-34c-11.6,0-21-9.4-21-21v-34h8c0,7.2,5.8,13,13,13h21v21c0,7.2,5.8,13,13,13V34z M-138.4-4.5V13
		c0,7.2,5.8,13,13,13h17.5c-2.8-3.6-4.5-8.1-4.5-13V0h-13C-130.3,0-134.8-1.7-138.4-4.5z"/>
	<path d="M-70.3,13h-8c0-7.2-5.8-13-13-13h-21v-21c0-7.2-5.8-13-13-13v-8h34c11.6,0,21,9.4,21,21V13z M-104.4-8h13
		c4.9,0,9.4,1.7,13,4.5V-21c0-7.2-5.8-13-13-13h-17.5c2.8,3.6,4.5,8.1,4.5,13V-8z"/>
	<path d="M-91.3,34c-11.6,0-21-9.4-21-21V-8h21c11.6,0,21,9.4,21,21S-79.8,34-91.3,34z M-104.4,0v13c0,7.2,5.8,13,13,13
		s13-5.8,13-13s-5.8-13-13-13H-104.4z"/>
	<path d="M-104.4,0h-21c-11.6,0-21-9.4-21-21c0-11.6,9.4-21,21-21s21,9.4,21,21V0z M-125.4-34c-7.2,0-13,5.8-13,13
		c0,7.2,5.8,13,13,13h13v-13C-112.4-28.2-118.2-34-125.4-34z"/>
	<path d="M-125.4,17c-2.2,0-4-1.8-4-4v-34c0-2.2,1.8-4,4-4s4,1.8,4,4v34C-121.4,15.2-123.2,17-125.4,17z"/>
	<path d="M-91.4,17c-2.2,0-4-1.8-4-4v-34c0-2.2,1.8-4,4-4s4,1.8,4,4v34C-87.4,15.2-89.1,17-91.4,17z"/>
</g>
<path d="M53.3-121.8h-33C9.1-121.8,0-112.7,0-101.5v33c0,11.2,9.1,20.4,20.4,20.4h33c11.2,0,20.4-9.1,20.4-20.4v-33
	C73.7-112.7,64.6-121.8,53.3-121.8z M20.4-114.1c7,0,12.6,5.7,12.6,12.6v12.6h-8.7v-12.6c0-2.2-1.7-3.9-3.9-3.9
	c-2.1,0-3.9,1.7-3.9,3.9v12c-0.3-0.1-0.6-0.2-0.9-0.3c-0.3-0.1-0.6-0.3-0.9-0.4c-0.3-0.1-0.5-0.3-0.8-0.4c0,0,0,0,0,0
	c-0.3-0.2-0.5-0.3-0.8-0.5c-0.2-0.2-0.4-0.3-0.6-0.5c-0.1-0.1-0.1-0.1-0.2-0.2c-0.2-0.2-0.4-0.3-0.6-0.5c-0.8-0.8-1.6-1.7-2.1-2.8
	c-0.1-0.1-0.2-0.3-0.2-0.4c-0.5-1-0.9-2.1-1.2-3.3c0-0.2-0.1-0.4-0.1-0.6c0-0.2-0.1-0.4-0.1-0.7c0-0.2,0-0.4-0.1-0.6
	c0-0.2,0-0.4,0-0.7C7.7-108.4,13.4-114.1,20.4-114.1z M20.4-55.9c-7,0-12.6-5.7-12.6-12.6v-17c1.2,1,2.5,1.8,3.9,2.4
	c0.2,0.1,0.5,0.2,0.7,0.3c0.6,0.3,1.3,0.5,2,0.7c0.3,0.1,0.6,0.2,0.9,0.3c0,0,0.1,0,0.1,0c0.3,0.1,0.5,0.1,0.8,0.2
	c0.1,0,0.2,0.1,0.4,0.1v13c0,2.1,1.7,3.9,3.9,3.9c2.2,0,3.9-1.7,3.9-3.9v-12.6H33v12.6c0,0.3,0,0.7,0,1c0,0,0,0.1,0,0.2
	c0,0.3,0,0.5,0.1,0.8c0,0.1,0,0.1,0,0.2c0,0.3,0.1,0.5,0.1,0.8c0.2,1.3,0.5,2.6,1,3.8c0.1,0.3,0.2,0.5,0.3,0.8
	c0.1,0.3,0.2,0.5,0.3,0.8c0.1,0.2,0.2,0.5,0.4,0.7c0.4,0.8,0.9,1.6,1.4,2.4c0.2,0.2,0.3,0.5,0.5,0.7c0.1,0.1,0.2,0.3,0.3,0.4H20.4z
	 M53.3-55.9c-6.9,0-12.6-5.7-12.6-12.6v-12.6h8.7v12.6c0,2.1,1.7,3.9,3.9,3.9c2.1,0,3.9-1.7,3.9-3.9v-12c5.1,1.6,8.7,6.4,8.7,12
	C66-61.5,60.3-55.9,53.3-55.9z M66-84.5c-0.2-0.1-0.3-0.2-0.4-0.3c-0.3-0.2-0.5-0.4-0.8-0.6c-0.5-0.4-1.1-0.7-1.7-1
	c-0.3-0.2-0.6-0.3-0.9-0.5c-0.3-0.1-0.6-0.3-0.9-0.4c-0.3-0.1-0.6-0.2-0.9-0.4c-0.3-0.1-0.6-0.2-0.9-0.3c-0.3-0.1-0.6-0.2-0.9-0.3
	c-0.4-0.1-0.9-0.2-1.3-0.3v-13c0-2.2-1.7-3.9-3.9-3.9c-2.1,0-3.9,1.7-3.9,3.9v12.6h-8.7v-12.6c0-1-0.1-2-0.2-2.9
	c0-0.3-0.1-0.6-0.1-0.9c-0.1-0.5-0.2-0.9-0.3-1.4c-0.1-0.3-0.2-0.6-0.3-0.9c-0.2-0.5-0.4-1.1-0.6-1.6c-0.1-0.2-0.1-0.4-0.2-0.5
	c-0.7-1.6-1.6-3.1-2.6-4.4h17c7,0,12.6,5.7,12.6,12.6V-84.5z"/>
<path d="M-124.8-145.6c7,0,12.6,5.7,12.6,12.6v12.6h-8.7v-12.6c0-2.2-1.7-3.9-3.9-3.9c-2.1,0-3.9,1.7-3.9,3.9v12
	c-0.3-0.1-0.6-0.2-0.9-0.3c-0.3-0.1-0.6-0.3-0.9-0.4c-0.3-0.1-0.5-0.3-0.8-0.4c0,0,0,0,0,0c-0.3-0.2-0.5-0.3-0.8-0.5
	c-0.2-0.2-0.4-0.3-0.6-0.5c-0.1-0.1-0.1-0.1-0.2-0.2c-0.2-0.2-0.4-0.3-0.6-0.5c-0.8-0.8-1.6-1.7-2.1-2.8c-0.1-0.1-0.2-0.3-0.2-0.4
	c-0.5-1-0.9-2.1-1.2-3.3c0-0.2-0.1-0.4-0.1-0.6c0-0.2-0.1-0.4-0.1-0.7c0-0.2,0-0.4-0.1-0.6c0-0.2,0-0.4,0-0.7
	C-137.5-139.9-131.8-145.6-124.8-145.6z"/>
<path d="M-108.2-87.8c0.1,0.1,0.2,0.3,0.3,0.4h-17c-7,0-12.6-5.7-12.6-12.6v-17c1.2,1,2.5,1.8,3.9,2.4c0.2,0.1,0.5,0.2,0.7,0.3
	c0.6,0.3,1.3,0.5,2,0.7c0.3,0.1,0.6,0.2,0.9,0.3c0,0,0.1,0,0.1,0c0.3,0.1,0.5,0.1,0.8,0.2c0.1,0,0.2,0.1,0.4,0.1v13
	c0,2.1,1.7,3.9,3.9,3.9c2.2,0,3.9-1.7,3.9-3.9v-12.6h8.7v12.6c0,0.3,0,0.7,0,1c0,0,0,0.1,0,0.2c0,0.3,0,0.5,0.1,0.8
	c0,0.1,0,0.1,0,0.2c0,0.3,0.1,0.5,0.1,0.8c0.2,1.3,0.5,2.6,1,3.8c0.1,0.3,0.2,0.5,0.3,0.8c0.1,0.3,0.2,0.5,0.3,0.8
	c0.1,0.2,0.2,0.5,0.4,0.7c0.4,0.8,0.9,1.6,1.4,2.4C-108.5-88.3-108.4-88-108.2-87.8z"/>
<path d="M-91.9-87.4c-6.9,0-12.6-5.7-12.6-12.6v-12.6h8.7v12.6c0,2.1,1.7,3.9,3.9,3.9c2.1,0,3.9-1.7,3.9-3.9v-12
	c5.1,1.6,8.7,6.4,8.7,12C-79.3-93-84.9-87.4-91.9-87.4z"/>
<path d="M-104.5-132.9c0-1-0.1-2-0.2-2.9c0-0.3-0.1-0.6-0.1-0.9c-0.1-0.5-0.2-0.9-0.3-1.4c-0.1-0.3-0.2-0.6-0.3-0.9
	c-0.2-0.5-0.4-1.1-0.6-1.6c-0.1-0.2-0.1-0.4-0.2-0.5c-0.7-1.6-1.6-3.1-2.6-4.4h17c7,0,12.6,5.7,12.6,12.6v17
	c-0.2-0.1-0.3-0.2-0.4-0.3c-0.3-0.2-0.5-0.4-0.8-0.6c-0.5-0.4-1.1-0.7-1.7-1c-0.3-0.2-0.6-0.3-0.9-0.5c-0.3-0.1-0.6-0.3-0.9-0.4
	c-0.3-0.1-0.6-0.2-0.9-0.4c-0.3-0.1-0.6-0.2-0.9-0.3c-0.3-0.1-0.6-0.2-0.9-0.3c-0.4-0.1-0.9-0.2-1.3-0.3v-13c0-2.2-1.7-3.9-3.9-3.9
	c-2.1,0-3.9,1.7-3.9,3.9v12.6h-8.7V-132.9z"/>
<g>
	<path d="M-88.5-153.3c9.4,0,17,7.6,17,17v39.7c0,9.4-7.6,17-17,17h-39.7c-9.4,0-17-7.6-17-17v-39.7c0-9.4,7.6-17,17-17H-88.5
		 M-88.5-160.3h-39.7c-13.2,0-24,10.8-24,24v39.7c0,13.2,10.8,24,24,24h39.7c13.2,0,24-10.8,24-24v-39.7
		C-64.5-149.5-75.3-160.3-88.5-160.3L-88.5-160.3z"/>
</g>
<g>
	<path class="st0" d="M53.9-113.8c6.5,0,11.8,5.3,11.8,11.8v34c0,6.5-5.3,11.8-11.8,11.8h-34C13.3-56.1,8-61.4,8-68v-34
		c0-6.5,5.3-11.8,11.8-11.8H53.9 M53.9-121.8h-34C8.9-121.8,0-112.9,0-102v34c0,11,8.9,19.8,19.8,19.8h34c11,0,19.8-8.9,19.8-19.8
		v-34C73.7-112.9,64.8-121.8,53.9-121.8L53.9-121.8z"/>
</g>
<g>
	<path class="st0" d="M36.9-94c5,0,9,4,9,9s-4,9-9,9s-9-4-9-9S31.9-94,36.9-94 M36.9-102c-9.4,0-17,7.6-17,17s7.6,17,17,17
		s17-7.6,17-17S46.2-102,36.9-102L36.9-102z"/>
</g>
<g>
	<path class="st0" d="M54.9-105.8c-1.6,0-2.8,1.3-2.8,2.8c0,1.6,1.3,2.8,2.8,2.8c1.6,0,2.8-1.3,2.8-2.8
		C57.7-104.5,56.4-105.8,54.9-105.8L54.9-105.8z"/>
</g>
<path d="M53.9,8c6.5,0,11.8,5.3,11.8,11.8v34c0,6.5-5.3,11.8-11.8,11.8h-34C13.3,65.7,8,60.4,8,53.9v-34C8,13.3,13.3,8,19.8,8H53.9
	 M53.9,0h-34C8.9,0,0,8.9,0,19.8v34c0,11,8.9,19.8,19.8,19.8h34c11,0,19.8-8.9,19.8-19.8v-34C73.7,8.9,64.8,0,53.9,0L53.9,0z"/>
<path d="M36.9,27.8c5,0,9,4,9,9s-4,9-9,9s-9-4-9-9S31.9,27.8,36.9,27.8 M36.9,19.8c-9.4,0-17,7.6-17,17s7.6,17,17,17s17-7.6,17-17
	S46.2,19.8,36.9,19.8L36.9,19.8z"/>
<path d="M54.9,16c-1.6,0-2.8,1.3-2.8,2.8s1.3,2.8,2.8,2.8s2.8-1.3,2.8-2.8S56.4,16,54.9,16L54.9,16z"/>
</svg>
